<svg width="186" height="38" viewBox="0 0 186 38" fill="none" xmlns="http://www.w3.org/2000/svg">
<path d="M168.152 37.44C166.552 37.44 165.176 37.136 164.024 36.528C162.872 35.92 161.992 35.056 161.384 33.936C160.776 32.784 160.472 31.456 160.472 29.952C160.472 27.488 161.368 25.712 163.16 24.624C164.952 23.536 167.64 22.928 171.224 22.8L175.16 22.656V16.56C175.16 15.152 175.064 14.064 174.872 13.296C174.68 12.496 174.376 11.936 173.96 11.616C173.544 11.264 172.968 11.088 172.232 11.088C171.4 11.088 170.744 11.328 170.264 11.808C169.784 12.256 169.448 13.04 169.256 14.16C169.064 15.248 168.968 16.768 168.968 18.72C166.824 18.72 165.208 18.48 164.12 18C163.032 17.488 162.488 16.64 162.488 15.456C162.488 14.304 162.936 13.376 163.832 12.672C164.728 11.936 165.928 11.408 167.432 11.088C168.936 10.768 170.584 10.608 172.376 10.608C175.736 10.608 178.248 11.216 179.912 12.432C181.608 13.648 182.456 15.76 182.456 18.768V33.072C182.456 33.936 182.536 34.624 182.696 35.136C182.888 35.616 183.192 35.968 183.608 36.192C184.056 36.384 184.632 36.48 185.336 36.48H185.528V36.96H175.256V32.112H175.16C174.744 33.488 174.184 34.56 173.48 35.328C172.776 36.096 171.96 36.64 171.032 36.96C170.136 37.28 169.176 37.44 168.152 37.44ZM170.6 36.096C171.528 36.096 172.328 35.744 173 35.04C173.704 34.336 174.232 33.424 174.584 32.304C174.968 31.184 175.16 30 175.16 28.752V23.136L173 23.232C171.72 23.296 170.712 23.568 169.976 24.048C169.24 24.496 168.712 25.2 168.392 26.16C168.072 27.088 167.912 28.304 167.912 29.808C167.912 31.344 168.008 32.576 168.2 33.504C168.392 34.432 168.68 35.104 169.064 35.52C169.48 35.904 169.992 36.096 170.6 36.096Z" fill="currentColor"/>
<path d="M127.113 36.96V36.48H127.689C128.169 36.48 128.665 36.416 129.177 36.288C129.721 36.128 130.169 35.824 130.521 35.376C130.905 34.928 131.097 34.256 131.097 33.36V14.64C131.097 13.776 130.905 13.136 130.521 12.72C130.137 12.304 129.673 12.032 129.129 11.904C128.617 11.776 128.137 11.712 127.689 11.712H127.113V11.232H138.393V15.6H138.489C138.873 14.16 139.417 13.088 140.121 12.384C140.825 11.68 141.641 11.216 142.569 10.992C143.497 10.736 144.425 10.608 145.353 10.608C148.169 10.608 150.265 11.344 151.641 12.816C153.017 14.288 153.705 16.64 153.705 19.872V33.072C153.705 34.064 153.817 34.8 154.041 35.28C154.297 35.76 154.665 36.08 155.145 36.24C155.625 36.4 156.217 36.48 156.921 36.48H157.065V36.96H146.409V18.288C146.409 16.208 146.137 14.656 145.593 13.632C145.049 12.576 144.121 12.048 142.809 12.048C141.689 12.048 140.793 12.432 140.121 13.2C139.481 13.968 139.033 15.04 138.777 16.416C138.521 17.792 138.393 19.376 138.393 21.168V33.36C138.393 34.256 138.569 34.928 138.921 35.376C139.305 35.824 139.769 36.128 140.313 36.288C140.857 36.416 141.353 36.48 141.801 36.48H142.377V36.96H127.113Z" fill="currentColor"/>
<path d="M110.238 36.96V36.48H110.814C111.294 36.48 111.79 36.416 112.302 36.288C112.846 36.128 113.294 35.824 113.646 35.376C114.03 34.928 114.222 34.256 114.222 33.36V14.64C114.222 13.776 114.03 13.136 113.646 12.72C113.262 12.304 112.798 12.032 112.254 11.904C111.742 11.776 111.262 11.712 110.814 11.712H110.238V11.232H121.518V33.36C121.518 34.256 121.694 34.928 122.046 35.376C122.43 35.824 122.894 36.128 123.438 36.288C123.982 36.416 124.478 36.48 124.926 36.48H125.502V36.96H110.238ZM117.63 6.912C116.702 6.912 115.902 6.64 115.23 6.096C114.59 5.52 114.27 4.64 114.27 3.456C114.27 2.24 114.606 1.36 115.278 0.816001C115.95 0.272 116.75 0 117.678 0C118.574 0 119.358 0.272 120.03 0.816001C120.702 1.36 121.038 2.24 121.038 3.456C121.038 4.64 120.702 5.52 120.03 6.096C119.358 6.64 118.558 6.912 117.63 6.912Z" fill="currentColor"/>
<path d="M62.8939 36.96V36.48H63.4699C63.9499 36.48 64.4459 36.416 64.9579 36.288C65.5019 36.128 65.9499 35.824 66.3019 35.376C66.6859 34.928 66.8779 34.256 66.8779 33.36V14.64C66.8779 13.776 66.6859 13.136 66.3019 12.72C65.9179 12.304 65.4539 12.032 64.9099 11.904C64.3979 11.776 63.9179 11.712 63.4699 11.712H62.8939V11.232H74.1739V15.6H74.2699C74.6539 14.16 75.1979 13.088 75.9019 12.384C76.6059 11.68 77.4219 11.216 78.3499 10.992C79.2779 10.736 80.2059 10.608 81.1339 10.608C82.7019 10.608 84.0299 10.832 85.1179 11.28C86.2379 11.696 87.1339 12.336 87.8059 13.2C88.5099 14.032 88.9899 15.088 89.2459 16.368H89.3419C89.5979 15.152 89.9819 14.128 90.4939 13.296C91.0379 12.432 91.7899 11.776 92.7499 11.328C93.7099 10.848 94.9419 10.608 96.4459 10.608C99.2619 10.608 101.358 11.344 102.734 12.816C104.11 14.288 104.798 16.64 104.798 19.872V33.072C104.798 34.064 104.91 34.8 105.134 35.28C105.39 35.76 105.758 36.08 106.238 36.24C106.718 36.4 107.31 36.48 108.014 36.48H108.158V36.96H97.5019V18.288C97.5019 16.208 97.2299 14.656 96.6859 13.632C96.1419 12.576 95.2139 12.048 93.9019 12.048C92.7819 12.048 91.8859 12.432 91.2139 13.2C90.5739 13.936 90.1259 14.96 89.8699 16.272C89.6139 17.584 89.4859 19.056 89.4859 20.688V33.072C89.4859 34.064 89.5979 34.8 89.8219 35.28C90.0779 35.76 90.4459 36.08 90.9259 36.24C91.4059 36.4 91.9979 36.48 92.7019 36.48H92.8459V36.96H82.1899V18.288C82.1899 16.208 81.9179 14.656 81.3739 13.632C80.8299 12.576 79.9019 12.048 78.5899 12.048C77.4699 12.048 76.5739 12.432 75.9019 13.2C75.2619 13.968 74.8139 15.04 74.5579 16.416C74.3019 17.792 74.1739 19.376 74.1739 21.168V33.36C74.1739 34.256 74.3499 34.928 74.7019 35.376C75.0859 35.824 75.5499 36.128 76.0939 36.288C76.6379 36.416 77.1339 36.48 77.5819 36.48H78.1579V36.96H62.8939Z" fill="currentColor"/>
<path d="M43.0222 37.44C40.2062 37.44 38.1102 36.704 36.7342 35.232C35.3582 33.76 34.6702 31.408 34.6702 28.176V15.12C34.6702 14.128 34.5422 13.392 34.2862 12.912C34.0622 12.432 33.7102 12.112 33.2302 11.952C32.7822 11.792 32.1902 11.712 31.4542 11.712H31.3102V11.232H41.9662V29.76C41.9662 31.136 42.0782 32.288 42.3022 33.216C42.5582 34.144 42.9423 34.848 43.4543 35.328C43.9983 35.776 44.7022 36 45.5662 36C46.7183 36 47.6143 35.616 48.2542 34.848C48.8942 34.08 49.3422 33.008 49.5982 31.632C49.8542 30.256 49.9823 28.672 49.9823 26.88V14.832C49.9823 13.904 49.7902 13.232 49.4062 12.816C49.0542 12.368 48.6062 12.08 48.0622 11.952C47.5502 11.792 47.0542 11.712 46.5742 11.712H46.3822V11.232H57.2783V33.552C57.2783 34.384 57.4703 35.024 57.8543 35.472C58.2383 35.888 58.6862 36.16 59.1982 36.288C59.7422 36.416 60.2382 36.48 60.6862 36.48H60.8783V36.96H49.9823V32.448H49.8862C49.5982 33.504 49.2142 34.368 48.7342 35.04C48.2542 35.712 47.7102 36.224 47.1022 36.576C46.4942 36.896 45.8382 37.12 45.1342 37.248C44.4302 37.376 43.7262 37.44 43.0222 37.44Z" fill="currentColor"/>
<path d="M0 36.96V36.48H2.016C2.496 36.48 2.912 36.416 3.264 36.288C3.648 36.128 3.936 35.824 4.128 35.376C4.352 34.928 4.464 34.256 4.464 33.36V6.288C4.464 5.36 4.352 4.688 4.128 4.272C3.936 3.824 3.648 3.536 3.264 3.408C2.912 3.248 2.496 3.168 2.016 3.168H0V2.688H16.56V3.168H14.544C14.096 3.168 13.68 3.232 13.296 3.36C12.944 3.488 12.656 3.76 12.432 4.176C12.208 4.592 12.096 5.232 12.096 6.096V36.48H19.152C21.104 36.48 22.688 36.224 23.904 35.712C25.12 35.2 26.032 34.384 26.64 33.264C27.28 32.144 27.664 30.656 27.792 28.8L27.984 26.256H28.464L28.08 36.96H0Z" fill="currentColor"/>
</svg>
