<svg width="1024" height="1024" viewBox="0 0 1024 1024" fill="none" xmlns="http://www.w3.org/2000/svg">
<g clip-path="url(#clip0_2_34)">
<path d="M522.814 351.511C529.032 344.651 540.415 336.568 548.16 331.766C587.151 307.599 632.346 304.711 675.934 316.02C687.402 318.997 699.384 323.56 710.651 326.25L715.04 327.587C719.863 329.034 717.451 328.401 721.692 329.673C736.816 334.209 748.468 337.205 764.081 340.052C768.96 340.94 786.566 343.982 790.081 345.146C796.573 362.474 799.312 363.243 810.163 376.984C811.526 378.837 812.009 379.957 814.179 380.583C818.538 381.245 822.549 381.811 825.367 385.608C832.342 395.023 848.078 460.478 852.21 476.012L870.458 543.576C879.372 577.137 889.196 610.449 899.924 643.473C904.729 658.126 920.868 697.068 918.662 710.401C918.221 713.066 916.828 716.294 914.584 717.92C910.072 721.203 902.785 721.313 897.387 721.295C876.394 721.24 855.67 717.559 834.745 716.771L579.839 705.253L578.519 706.806C563.058 746.793 456.102 739.775 447.751 707.705C423.479 709.521 399.177 710.926 374.857 711.917C363.218 712.363 351.551 712.021 339.919 712.388C274.415 714.405 207.811 722.493 142.472 724.425C94.7685 725.837 102.228 713.812 113.915 676.13C116.87 665.945 119.066 655.137 122.49 645.129C150.733 562.551 171.903 478.273 193.321 393.782C195.958 383.383 200.325 382.662 209.563 381.935C212.242 378.222 214.841 374.452 217.359 370.628L219.256 368.099C221.185 365.205 222.149 363.276 222.149 363.276C224.079 360.864 224.079 360.864 224.079 360.864C225.043 359.418 225.043 359.418 225.043 359.418C225.043 359.418 225.043 359.418 226.279 357.397C228.072 354.703 232.307 343.793 234.285 343.461C307.192 331.233 382.683 294.015 455.631 326.121C475.438 333.625 497.457 347.639 510.099 364.853C513.913 360.728 518.737 355.035 522.814 351.511Z" fill="#0B0C0A"/>
<path d="M586.778 320.175C654.403 302.825 696.639 332.088 760.517 344.66C763.464 345.24 766.93 345.595 769.754 346.51C773.276 347.099 781.186 348.197 784.316 349.085C785.416 349.239 786.468 349.254 786.988 350.639C789.36 356.977 790.546 365.983 792.318 372.544C793.835 378.014 796.616 387.552 797.38 392.981L798.444 396.398C800.046 402.793 801.592 409.371 803.493 415.674C808.152 437.058 815.934 460.215 820.733 481.764C821.613 485.701 825.886 500.991 826.18 504.09C827.28 507.886 832.721 528.684 832.782 531.753C836.866 544.358 840.039 559.825 843.425 572.95C845.131 579.577 850.767 597.813 851.568 603.516L850.945 604.415C851.385 606.249 851.776 606.524 851.324 608.095L849.716 606.084L849.337 606.133C849.141 612.595 852.675 614.208 854.656 619.564C855.151 620.909 854.295 628.245 855.065 630.525L855.738 631.075C857.241 632.328 858.348 632.909 858.868 634.712L858.269 635.843L857.504 634.193C851.672 634.113 846.017 634.749 840.259 632.707L838.376 633.294C808.702 623.892 789.537 621.257 759.826 615.346C715.725 606.567 689.86 596.119 643.9 600.032C640.073 600.643 632.34 601.982 628.788 602.171C605.643 607.05 583.379 614.215 563.021 626.233C560.772 627.554 558.375 628.941 556.01 630.017C546.1 636.766 535.2 644.121 526.947 652.899L523.493 656.103C522.118 656.518 521.304 657.038 519.727 657.411C513.327 653.162 516.897 624.448 513.779 615.994C512.984 610.161 513.186 588.765 513.107 581.918C514.036 562.991 513.155 536.007 513.143 516.335C513.259 467.746 512.77 419.158 511.676 370.578C514.231 367.352 515.986 365.38 518.847 362.418C520.271 360.665 522.252 358.731 523.848 357.081C532.113 348.796 546.161 338.24 556.651 332.756C561.059 330.03 565.271 328.134 569.936 325.937C575.358 324.326 580.781 321.909 586.778 320.175ZM369.874 319.308C394.314 317.474 414.953 318.079 438.907 325.259C445.837 327.337 451.771 330.236 458.229 332.406C477.201 342.262 497.744 352.717 509.084 371.763L508.919 519.129C508.974 536.698 508.577 556.933 509.127 574.289L508.968 636.198C508.998 645.784 508.723 658.395 509.329 667.797C493.424 645.221 450.913 623.262 424.742 612.992C418.269 610.932 412.59 609.385 406.032 607.686C403.305 607.184 400.598 606.652 397.88 606.108C347.261 595.918 299.884 600.545 250.562 614.233C236.96 617.962 225.653 621.465 212.334 625.909L211.737 625.946C207.186 628.128 196.716 631.295 191.536 633.05C190.485 633.374 187.784 634.284 186.841 634.407C180.743 637.09 169.153 640.392 162.661 642.342C163.721 638.037 164.864 633.752 166.089 629.492C166.466 623.042 176.039 590.85 178.211 583.514C180.686 572.235 184.223 557.893 187.351 546.791C198.671 498.129 210.497 449.59 222.828 401.173C224.318 395.676 225.702 390.15 226.978 384.6C230.771 373.829 232.432 359.507 236.372 348.543C242.237 347.067 248.619 345.871 254.574 344.645C260.452 343.852 268.536 341.724 274.649 340.505L279.416 339.284C283.441 338.092 287.646 336.996 291.705 335.88L295.29 335.011C300.839 333.478 306.572 332.049 312.155 330.586C324.615 328.075 337.714 324.57 350.85 321.934C357.166 320.887 363.51 320.011 369.874 319.308Z" fill="#F8F9F5"/>
<path d="M317.79 606.817C334.783 604.562 362.283 606.94 379.155 608.523C381.898 608.859 388.834 609.55 391.134 610.241C421.531 612.411 480.798 642.874 501.558 666.11C503.362 668.134 506.761 672.529 508.466 674.828L501.406 675.023C490.617 660.076 469.378 647.177 452.128 640.985C458.945 646.211 467.652 650.851 474.864 655.742C483.588 661.66 491.593 668.397 499.156 675.72C497.023 676.185 494.256 676.698 492.219 677.304L489.613 677.634L487.949 678.783L487.389 678.569C484.431 679.853 480.941 681.687 477.994 683.142C471.755 678.667 466.924 675.537 460.241 671.777C422.503 651.683 371.869 647.734 329.73 651.426C320.321 652.251 308.689 654.25 299.252 655.748L281.937 659.324C277.063 661.006 269.945 662.259 264.665 663.64C235.696 671.251 207.076 677.676 177.131 680.03C165.87 680.916 155.463 680.262 144.638 680.776L148.342 674.32C150.954 669.075 153.765 663.72 155.884 658.279C177.092 659.942 196.283 656.286 216.909 651.995C218.295 651.402 229.635 648.687 231.714 648.162C242.02 645.484 252.342 642.867 262.682 640.318C265.565 639.31 272.498 637.977 275.779 637.268C295.697 633.276 311.964 629.95 332.46 628.275C332.867 628.043 333.275 627.817 333.682 627.59C332.62 627.211 325.541 627.297 323.565 627.193C321.706 627.199 319.226 627.413 317.314 627.511C310.23 628.139 303.158 628.906 296.104 629.809L292.701 630.794C288.359 631.246 285.434 631.876 281.152 632.817C271.943 634.908 260.974 637.31 251.969 639.89C247.395 640.985 242.814 642.14 238.181 642.935C226.047 646.633 201.587 652.459 189.115 653.89C180.792 655.473 169.222 656.885 160.716 656.757C159.1 656.855 159.149 656.806 157.569 656.366C156.459 653.932 157.707 651.842 159.011 649.763C160.705 647.061 160.964 647.52 163.8 646.994C182.066 641.679 200.178 635.851 218.116 629.516L224.631 627.48C230.148 626.355 243.547 621.764 250.44 619.924C253.269 619.164 256.104 618.429 258.946 617.717C273.039 614.208 287.441 610.394 301.854 608.688L307.228 607.863C310.629 607.441 314.353 607.154 317.79 606.817Z" fill="#E8E8E4"/>
<path d="M336.517 626.551C338.632 626.557 345.969 626.325 347.339 627.095L345.692 627.908C343.163 627.969 334.273 628.465 332.46 628.275C332.867 628.043 333.275 627.817 333.682 627.59C332.62 627.211 325.541 627.297 323.565 627.193C327.286 626.594 332.62 626.637 336.517 626.551Z" fill="black"/>
<path d="M412.203 640.642C441.64 642.317 471.015 657.503 492.219 677.304L489.613 677.634C473.799 660.78 435.601 646.114 412.522 643.204C409.317 642.336 405.809 642.146 402.495 641.871L401.958 641.241C403.76 640.367 409.59 640.673 412.203 640.642Z" fill="#010201"/>
<path d="M115.529 689.133C120.693 693.058 117.272 694.537 118.964 698.254C120.603 699.318 122.073 699.269 124.041 699.489C124.651 701.653 124.637 702.105 126.251 703.731C130.238 704.777 136.659 704.275 140.932 704.416C158.65 704.985 177.076 702.613 194.581 702.307C200.438 701.537 207.195 701.384 213.145 701.194C219.226 700.406 225.894 700.393 232.055 700.124C260.545 698.663 289.235 699.379 317.71 698.541C353.447 697.49 389.295 693.981 424.936 691.272C435.535 690.466 446.024 690.441 456.588 689.805C457.362 691.67 458.415 694.464 459.302 696.188C459.827 696.903 461.864 699.758 462.355 700.228C464.363 702.943 466.048 704.08 468.663 706.14C483.755 716.025 495.887 717.119 513.858 716.948C516.506 716.924 523.848 716.386 525.73 716.508C528.842 716.099 531.935 715.603 535.01 715.023C539.987 713.934 542.395 713.451 547.066 711.544C551.382 709.839 555.569 706.794 559.372 704.104C564.336 699.568 566.793 697.96 565.931 690.961C570.779 689.139 610.405 690.979 617.961 690.765C652.697 689.787 687.781 693.944 722.535 694.855L781.125 695.961C786.364 696.102 799.948 696.157 804.502 696.848C774.896 698.847 745.161 698.645 715.322 699.58C716.226 700.247 734.89 702.05 737.598 702.319C751.445 703.689 766.178 702.154 780 703.524C784.206 704.618 784.86 704.63 789.225 704.673L789.518 705.272C785.912 705.559 761.459 704.41 760.346 705.406L760.542 706.433C760.762 707.619 760.762 707.155 760.694 707.943C756.513 707.986 751.885 707.803 747.698 707.558C719.552 705.926 690.838 705.688 662.76 703.737C656.365 703.817 646.168 703.126 639.749 702.527C622.063 703.199 600.227 699.55 581.997 700.656C579.796 700.791 579.839 700.872 579.037 701.354L579.839 705.254L578.519 706.806L577.706 706.329C575.67 706.653 575.817 706.684 573.915 705.889C572.797 707.375 571.971 708.665 570.522 709.826L569.288 711.135C548.704 735.881 482.479 733.008 458.239 714.13C454.89 711.52 452.177 706.568 450.047 702.894C427.753 703.713 405.154 705.895 382.537 706.134C355.167 706.427 327.951 707.253 300.614 708.86C282.973 709.985 265.341 711.245 247.719 712.638C241.303 713.152 228.434 714.735 222.811 714.607C213.531 715.255 189.847 717.535 181.555 717.193C179.674 717.547 170.662 717.859 168.209 717.963C152.167 718.648 129.666 720.525 114.084 717.395C112.053 715.041 111.15 713.317 109.584 710.664C110.413 703.872 113.328 695.741 115.529 689.133Z" fill="#E8E8E4"/>
<path d="M579.037 701.354L579.839 705.254L578.519 706.806L577.706 706.329C575.67 706.654 575.817 706.684 573.915 705.889C574.404 704.905 574.692 704.667 575.383 703.792L577.108 701.837L579.037 701.354Z" fill="#010201"/>
<path d="M340.088 673.66C347.056 672.187 371.218 672.187 378.306 673.03C389.209 672.884 416.523 676.063 426.708 679.321C430.577 680.22 446.812 683.741 449.4 685.086L449.523 685.404C401.464 686.253 354.398 692.819 306.487 693.357C300.944 693.418 282.805 693.877 278.049 693.357C273.758 693.803 263.648 694.152 259.225 693.962C254.694 694.567 245.514 694.604 240.694 694.751C230.331 695.069 219.97 695.472 209.614 695.949C191.005 696.854 172.284 698.468 153.68 699.269C147.974 699.513 135.071 700.522 130.1 699.678L130.116 698.51C131.909 695.637 133.304 694.604 135.784 692.342L136.538 690.533C140.008 691.547 144.249 691.554 147.872 691.407C155.168 692.043 176.15 691.774 183.316 690.93C188.736 690.942 199.222 689.866 204.97 689.341C233.38 686.736 261.824 681.277 290 676.539L290.533 678.483C291.523 678.777 292.508 679.082 293.489 679.406C303.422 677.499 330.722 673.764 340.088 673.66Z" fill="#E8E8E4"/>
<path d="M183.316 690.93C188.736 690.942 199.222 689.866 204.97 689.341C233.38 686.736 261.824 681.277 290 676.539L290.533 678.483C291.523 678.777 292.508 679.082 293.489 679.406C288.679 680.177 283.188 680.923 278.464 681.87L274.376 682.647L268.381 683.343C264.428 684.071 260.296 684.774 256.376 685.587C229.631 689.506 160.944 699.048 135.784 692.342L136.538 690.533C140.008 691.547 144.249 691.554 147.872 691.407C155.168 692.043 176.15 691.774 183.316 690.93Z" fill="#010201"/>
<path d="M256.376 685.587C260.296 684.774 264.428 684.071 268.381 683.344C269.57 685.771 269.758 686.009 272.133 687.311L272.248 688.375C269.627 689.475 258.224 688.057 256.376 685.587ZM259.225 693.962C257.535 693.473 256.234 693.271 254.87 692.177L255.463 691.242C260.877 690.447 271.521 692.844 278.049 693.357C273.758 693.803 263.648 694.152 259.225 693.962ZM278.464 681.87C283.722 684.511 289.982 678.869 292.357 682.121C289.418 684.383 279.334 684.499 275.345 684.676L275.526 684.853L273.762 684.78L273.769 684.004L275.486 683.16L274.376 682.647L278.464 681.87Z" fill="#E8E8E4"/>
<path d="M212.862 384.502C214.26 382.179 213.834 382.896 216.543 381.424C215.679 385.144 214.854 388.91 213.829 392.584C215.288 394.503 215.239 394.729 217.864 394.112L219.29 394.797L218.493 397.774C210.548 424.807 204.736 452.922 197.611 480.211C195.569 488.054 193.682 495.935 191.95 503.851C186.462 526.055 180.683 557.013 173.834 577.975C172.729 588.918 164.92 607.679 163.404 619.264C162.385 622.92 161.383 626.582 160.4 630.244L158.659 636.766C156.735 634.939 156.942 633.789 156.192 631.283C154.697 631.558 154.226 632.493 152.888 633.777C155.364 621.85 157.999 609.954 160.793 598.094L164.204 584.504L166.129 577.865L165.317 577.602C162.684 581.484 160.749 591.479 159.426 596.431C152.099 623.861 146.39 652.019 137.825 679.076C136.48 683.325 133.699 687.519 131.217 691.126C132.225 682.506 136.558 667.504 138.62 658.438C147.079 621.276 156.861 584.429 167.949 547.965C168.008 547.256 168.913 543.79 169.131 542.891C173.516 526.892 179.418 503.289 182.869 487.223C187.02 468.401 192.539 445.702 197.876 427.234C202.118 411.278 204.133 398.495 212.862 384.502Z" fill="#E8E8E4"/>
<path d="M212.862 384.502C214.26 382.179 213.834 382.896 216.543 381.424C215.679 385.144 214.854 388.91 213.829 392.584C212.177 402.64 209.301 410 207.099 419.5C201.115 445.317 192.054 473.511 186.945 499.328C184.962 508.235 182.628 517.698 179.817 526.373L177.777 531.111C177.534 526.037 184.147 503.252 185.438 496.216C191.259 474.893 195.671 451.852 201.654 429.63L197.876 427.234C202.118 411.278 204.133 398.495 212.862 384.502Z" fill="#010201"/>
<path d="M212.863 384.502C212.501 390.682 203.766 422.19 201.654 429.63L197.876 427.234C202.118 411.278 204.133 398.495 212.863 384.502ZM155.859 555.307C160.347 542.121 164.211 527.1 167.65 513.523C177.311 475.388 188.006 437.425 196.363 399.003C197.247 394.937 199.931 386.794 205.003 387.137C205.066 389.099 200.979 398.874 200.157 401.558C184.425 452.934 174.31 505.667 160.277 557.508C158.975 554.812 158.532 555.38 157.081 555.307H155.859ZM153.326 564.336C156.205 565.816 156.019 566.598 158.489 564.275C150.738 591.167 142.569 618.922 136.434 646.193C133.922 645.594 134.608 646.285 133.555 644.714C134.814 642.757 135.353 642.36 134.59 640.282C133.503 641.144 133.95 640.93 132.643 641.37C130.942 638.521 131.984 638.448 130.77 635.746C132.306 629.51 137.49 615.614 139.698 608.884C144.417 594.09 148.96 579.24 153.326 564.336ZM125.303 654.33L126.102 654.966L127.723 652.685L128.475 653.181C129.259 658.059 128.098 662.369 130.358 666.19L129.93 671.447L130.625 671.319C130.207 673.886 129.204 680.067 128.313 682.433C127.546 687.219 126.236 695.301 124.041 699.489C122.073 699.269 120.603 699.318 118.964 698.254C117.272 694.537 120.693 693.058 115.529 689.133L117.558 682.457C119.964 673.801 122.574 662.565 125.303 654.33Z" fill="#E8E8E4"/>
<path d="M130.77 635.746C131.984 638.448 130.942 638.521 132.643 641.37C133.95 640.93 133.503 641.144 134.59 640.282C135.353 642.36 134.814 642.758 133.555 644.714C134.608 646.285 133.922 645.594 136.434 646.193C135.615 650.442 132.338 667.969 130.625 671.319L129.93 671.447L130.358 666.19C128.098 662.369 129.259 658.059 128.475 653.181L127.723 652.686L126.102 654.966L125.303 654.33C127.001 647.844 128.427 642.048 130.77 635.746ZM851.568 603.516C855.181 611.702 858.654 631.051 861.68 640.728C853.965 638.325 845.987 635.947 838.376 633.294L840.259 632.707C846.017 634.749 851.672 634.113 857.504 634.193L858.268 635.843L858.868 634.712C858.348 632.909 857.241 632.328 855.738 631.075L855.065 630.525C854.295 628.245 855.151 620.909 854.656 619.564C852.675 614.209 849.141 612.595 849.337 606.133L849.716 606.084L851.324 608.095C851.776 606.524 851.385 606.249 850.945 604.415L851.568 603.516ZM217.535 379.67C219.552 379.482 219.435 379.569 221.011 378.316C221.994 378.43 222.828 378.456 223.788 378.462C222.919 382.966 220.846 390.316 219.29 394.797L217.864 394.112C215.239 394.73 215.288 394.503 213.829 392.584C214.854 388.91 215.679 385.144 216.543 381.425L217.535 379.67Z" fill="#EFF0EA"/>
<path d="M513.779 615.994C516.897 624.448 513.327 653.162 519.727 657.411C521.305 657.038 522.118 656.518 523.493 656.103C522.148 657.686 520.735 659.334 519.391 660.902C517.787 662.772 515.858 664.701 513.447 668.077C512.628 662.153 513.7 622.847 513.779 615.994Z" fill="#F8F9F5"/>
<path d="M152.888 633.777C154.226 632.493 154.697 631.558 156.192 631.283C156.942 633.789 156.735 634.939 158.659 636.766C157.7 639.621 155.684 644.322 156.968 646.945L156.826 647.526C153.16 646.132 153.459 646.517 150.096 644.023C150.602 641.211 151.874 636.387 152.888 633.777ZM141.308 677.487C143.72 669.546 147.343 658.42 148.443 650.393C149.088 652.007 149.059 652.893 150.225 653.492L152.218 652.948L153.484 654.874C150.291 661.183 145.075 671.869 141.308 677.487ZM227.289 363.834L225.929 370.899C225.384 372.866 224.453 376.693 223.788 378.462C222.828 378.456 221.994 378.43 221.011 378.316C219.435 379.568 219.552 379.482 217.535 379.67C219.002 376.123 224.996 367.084 227.289 363.834Z" fill="#E8E8E4"/>
<path d="M150.096 644.023C153.459 646.517 153.16 646.132 156.826 647.526L153.484 654.874L152.218 652.948L150.225 653.492C149.059 652.893 149.088 652.007 148.443 650.393L150.096 644.023ZM155.859 555.307C158.532 555.38 158.975 554.812 160.277 557.508L158.489 564.275C156.019 566.598 156.205 565.816 153.326 564.336C154.339 561.17 155.049 558.522 155.859 555.307ZM572.301 627.181C603.987 613.732 643.509 598.882 678.758 605.142C686.834 605.607 699.109 607.582 706.995 609.22C723.727 612.552 740.404 616.819 757.094 620.236C785.141 625.976 812.963 629.651 839.965 639.481C844.556 641.156 851.85 643.54 856.557 644.384L857.712 645.239C860.506 646.328 863.887 656.158 865.666 659.71C866.955 661.317 867.206 661.232 867.64 663.127C859.308 666.073 823.82 655.913 819.847 657.894C820.44 659.19 820.965 659.068 822.597 659.899C821.314 660.315 821.026 660.394 819.785 660.963C820.201 666.116 844.526 666.514 849.172 666.465C846.904 667.143 843.163 667.846 841.384 668.702L842.136 668.867L841.518 668.745L843.01 667.926L842.453 668.849C844.318 668.831 853.427 668.458 854.24 669.148C852.186 670.591 850.272 669.564 846.482 671.068C848.255 671.215 847.907 671.178 849.692 670.952C850.7 671.392 852.724 672.083 853.298 672.804C851.636 672.835 850.26 672.835 848.579 672.774L847.008 673.599C844.672 673.513 841.267 672.865 838.902 672.388C814.827 667.571 791.126 661.006 766.942 656.671C763.164 655.999 760.462 655.222 756.574 655.229L756.562 655.803L757.962 656.959C765.738 658.01 787.434 663.634 795.033 665.841C798.205 666.422 799.985 666.868 803.072 667.81C807.375 668.568 823.673 671.954 827.244 673.403C837.214 675.329 847.24 676.949 857.309 678.257C866.106 679.639 869.095 679.529 877.972 679.156C880.227 681.62 882.673 684.395 884.977 686.767C879.983 686.278 829.64 683.502 827.189 684.609C838.229 689.53 874.12 688.907 886.769 688.668L894.19 697.049C815.561 690.539 737.183 690.594 658.413 686.137C641.314 685.165 582.077 684.12 567.576 687.366C569.612 684.97 574.148 683.398 577.131 682.347C603.039 673.202 630.744 669.093 658.15 668.794C679.308 668.568 700.271 671.539 721.086 674.65C737.696 677.585 754.367 680.165 771.087 682.39C777.005 682.561 783.711 683.6 789.335 683.545C791.976 683.46 794.122 683.698 796.347 682.426C782.323 679.633 767.572 678.985 753.646 676.325C702.203 666.489 653.315 659.428 601.291 671.465C598.057 672.309 592.536 673.593 589.584 674.742C580.884 677.132 565.332 682.426 558.565 688.528C557.269 687.678 554.94 685.942 553.601 685.66C552.024 684.542 551.101 684.144 549.401 683.264L547.512 682.506C545.513 680.696 545.165 680.678 542.585 679.676C541.246 678.581 542.01 679.015 539.822 678.972C537.199 677.114 532.969 676.332 529.808 676.16C527.369 676.472 524.612 676.668 522.717 674.925C519.599 674.198 518.639 674.29 515.405 674.387C529.502 653.957 550.025 639.878 571.317 627.7L572.301 627.181Z" fill="#E8E8E4"/>
<path d="M595.19 634.547C650.423 609.391 748.333 624.326 803.322 643.986L802.901 645.307C784.475 642.103 765.34 636.039 747.172 633.141C740.851 631.045 731.736 629.865 725.182 628.801C685.703 622.413 644.463 622.376 605.57 632.383C602.226 633.245 598.607 634.132 595.19 634.547ZM547.512 682.506C573.494 660.908 613.89 654.636 646.883 652.673C652.752 652.331 661.317 652.148 666.898 653.425L667.271 654.88C660.938 654.226 649.139 655.094 642.555 655.626C609.892 658.243 577.272 665.157 549.401 683.264L547.512 682.506Z" fill="#0B0C0A"/>
<path d="M803.322 643.986C806.165 644.781 807.07 645.019 809.662 646.389C807.632 646.297 804.948 645.698 802.9 645.307L803.322 643.986Z" fill="#55544E"/>
<path d="M539.822 678.973C556.927 659.997 599.084 644.28 624.338 640.037C622.388 641.4 602.684 648.363 599.157 649.286C589.565 651.787 545.458 672.126 542.585 679.676C541.246 678.581 542.01 679.015 539.822 678.973ZM522.717 674.926C526.794 671.612 529.832 667.791 533.555 664.288C541.668 656.659 554.102 645.942 565.112 642.971C557.666 650.173 532.37 665.016 527.778 674.938C528.738 676.148 528.157 675.635 529.808 676.16C527.369 676.472 524.612 676.668 522.717 674.926Z" fill="#010201"/>
<path d="M277.714 664.154C331.644 649.378 409.052 648.211 459.606 674.363C458.202 675.916 458.527 675.042 458.442 677.004C455.758 677.084 451.491 674.559 450.249 676.057C447.443 679.449 448.106 680.073 443.275 678.337L441.875 679.015C440.784 678.905 435.025 677.34 433.619 676.98L428.111 675.653L415.304 672.939C385.08 668.58 360.652 667.009 329.952 670.714C316.788 672.303 302.835 675.091 290 676.539C261.824 681.277 233.38 686.736 204.97 689.341C199.222 689.866 188.736 690.942 183.316 690.93C176.15 691.774 155.168 692.043 147.872 691.407C144.249 691.554 140.008 691.548 136.538 690.533C139.487 687.299 140.814 685.795 143.262 682.182C147.697 683.649 156.826 683.423 161.684 683.46C199.311 683.771 234.074 673.495 270.447 666.141C273.358 665.01 274.606 664.796 277.714 664.154Z" fill="#E8E8E4"/>
<path d="M829.646 432.271L831.321 431.892C833.07 434.032 833.479 433.964 833.174 437.1L833.889 438.482C834.781 437.198 835.069 436.208 836.383 435.425C853.043 500.594 870.936 565.441 890.052 629.932C895.706 648.51 903.177 666.862 908.507 684.719L909.4 688.295L915.721 710.969C913.386 711.587 914.003 708.707 912.188 713.189C909.327 715.102 907.67 715.707 904.204 715.903C884.433 717.003 864.522 713.763 844.954 712.4C816.882 710.676 788.797 709.19 760.694 707.943C760.762 707.155 760.762 707.619 760.542 706.433L760.346 705.406C761.459 704.41 785.912 705.559 789.519 705.272L789.225 704.673C784.86 704.63 784.206 704.618 780 703.523C766.178 702.154 751.445 703.689 737.598 702.319C734.89 702.05 716.226 700.247 715.322 699.58C745.161 698.645 774.896 698.847 804.502 696.848C807.467 696.75 821.259 696.744 823.661 697.496C844.263 697.587 867.341 701.09 888.786 701.335C891.513 700.889 897.852 700.864 900.866 700.803C901.508 693.589 893.573 676.674 891.745 668.635C888.328 653.621 885.222 638.081 881.346 623.201L829.646 432.271Z" fill="#E8E8E4"/>
<path d="M836.395 485.169L838.51 484.65L839.165 486.215L839.886 486.013C847.68 509.103 853.084 538.795 859.962 562.863C863.501 576.459 867.163 590.024 870.954 603.553C873.491 612.387 877.311 624.1 879.274 632.811C884.776 655.345 887.453 671.239 895.443 693.32C892.943 690.417 890.082 687.317 888.645 683.716C883.431 670.646 880.992 656.329 876.578 642.916C875.765 640.44 874.793 637.152 874.212 634.682C871.4 622.969 863.66 593.368 859.228 582.04C862.603 604.745 873.264 639.817 879.176 662.827C880.833 668.427 882.404 674.052 883.889 679.7C881.138 676.032 878.241 671.588 876.15 667.516C873.002 663.06 865.005 650.882 862.86 646.211L863.612 645.404L865.592 645.27C868.631 640.208 856.954 605.894 855.713 597.489L853.433 590.495C851.843 584.632 850.315 578.751 848.842 572.852L847.051 566.427L841.701 546.198L838.938 535.011C835.588 520.003 831.401 504.292 827.794 489.216C830.3 490.372 829.426 490.372 831.884 490.103C832.733 488.513 832.367 488.733 831.914 486.477L832.709 486.184L835.466 489.473L836.12 489.21C836.077 487.939 836.083 487.456 836.248 486.221L836.395 485.169ZM496.779 681.571C509.047 679.29 514.647 679.15 526.727 681.363C530.945 682.017 534.069 683.019 538.159 684.23C542.108 685.618 547.536 687.763 551.039 690.08C555.288 692.483 557.11 693.394 561.658 695.142C558.974 697.496 556.254 699.8 553.491 702.056L550.324 703.554L550.037 703.621C544.859 707.222 533.824 710.26 527.589 710.872C505.685 713.017 485.948 712.577 468.071 699.024L467.484 697.869C470.73 691.56 489.982 683.551 496.779 681.571Z" fill="#E8E8E4"/>
<path d="M801.372 373.629L803.622 377.115C807.009 378.04 805.334 378.598 807.003 380.841C812.621 388.268 814.418 392.578 816.772 401.625C823.111 425.981 829.689 450.25 836.731 474.41C837.826 478.157 839.128 482.229 839.886 486.013L839.164 486.215L838.51 484.65L836.395 485.169L836.248 486.221C836.083 487.456 836.077 487.939 836.12 489.21L835.466 489.473L832.709 486.184L831.914 486.478C832.367 488.733 832.733 488.513 831.884 490.103C829.426 490.372 830.3 490.372 827.794 489.216L825.55 480.431C818.312 453.026 811.007 422.716 803.09 395.726C801.018 388.873 799.006 382.006 797.068 375.119C799.367 375.244 798.97 374.971 801.372 373.629Z" fill="#E8E8E4"/>
<path d="M803.622 377.115C807.009 378.04 805.334 378.598 807.002 380.841C806.911 385.596 809.472 392.027 810.536 396.802C817.053 426.109 830.092 458.002 833.87 487.419C832.073 482.369 830.349 477.705 829.01 472.503C827.06 464.855 824.12 456.474 821.986 448.728C815.427 424.929 808.213 401.393 803.622 377.115Z" fill="#010201"/>
<path d="M459.606 674.363C465.432 677.609 471.204 680.947 476.921 684.377C473.74 686.455 471.747 687.8 468.771 690.203C462.574 686.223 449.306 681.369 441.874 679.015L443.275 678.337C448.106 680.073 447.443 679.449 450.248 676.056C451.491 674.559 455.758 677.083 458.442 677.004C458.526 675.042 458.202 675.916 459.606 674.363Z" fill="#E8E8E4"/>
<path d="M826.155 400.195C829.933 411.932 832.739 423.969 836.383 435.426C835.068 436.208 834.781 437.198 833.889 438.482L833.173 437.101C833.479 433.964 833.069 434.032 831.321 431.892L829.646 432.271C826.461 422.184 823.936 411.578 820.91 401.368C822.09 402.224 822.041 402.163 823.453 402.561C824.413 401.766 825.238 401.032 826.155 400.195ZM870.22 666.306L870.739 667.376C868.19 668.598 868.398 668.733 868.539 671.832C865.727 672.541 863.838 672.48 860.97 672.572C859.699 669.992 862.328 671.288 860.06 669.717C859.558 670.463 859.662 671.912 859.846 671.814C856.942 673.434 855.034 674.223 851.746 674.424C849.912 674.272 848.793 673.978 847.008 673.599L848.579 672.774C850.26 672.835 851.635 672.835 853.298 672.804C852.724 672.083 850.7 671.392 849.691 670.952C847.906 671.178 848.255 671.215 846.482 671.068C850.272 669.564 852.186 670.591 854.24 669.149C853.427 668.458 844.318 668.831 842.453 668.849L843.01 667.926L841.518 668.745L842.135 668.867L841.384 668.702C843.162 667.846 846.904 667.143 849.172 666.465C855.866 666.587 863.611 666.868 870.22 666.306Z" fill="#E8E8E4"/>
<path d="M822.597 659.899C825.703 660.095 839.195 663.243 844.887 664.007C850.321 664.771 855.786 665.34 861.264 665.713C863.434 665.86 868.398 665.89 870.22 666.306C863.611 666.868 855.866 666.587 849.172 666.465C844.526 666.514 820.201 666.116 819.785 660.963C821.026 660.394 821.314 660.315 822.597 659.899ZM851.746 674.424C855.035 674.223 856.942 673.434 859.846 671.814C859.662 671.912 859.558 670.463 860.06 669.717C862.328 671.288 859.699 669.992 860.971 672.572C863.838 672.48 865.727 672.541 868.539 671.832C868.398 668.733 868.19 668.598 870.74 667.376C872.512 670.359 874.31 673.33 876.138 676.283C870.593 676.081 856.942 675.61 851.746 674.424ZM815.433 384.942C823.172 389.906 823.276 391.3 826.155 400.195C825.238 401.032 824.413 401.766 823.453 402.561C822.041 402.163 822.09 402.224 820.91 401.368C819.59 395.347 817.915 390.542 815.433 384.942ZM795.956 371.509C795.399 369.307 794.886 368.903 795.455 367.07C797.918 369.048 798.945 371.303 801.372 373.629C798.97 374.971 799.367 375.244 797.068 375.119L795.956 371.509Z" fill="#E8E8E4"/>
</g>
<defs>
<clipPath id="clip0_2_34">
<rect width="1024" height="1024" fill="white"/>
</clipPath>
</defs>
</svg>
